<svg xmlns="http://www.w3.org/2000/svg" viewBox="0 0 512 512">
  <defs>
    <radialGradient id="bg" cx="35%" cy="30%" r="90%">
      <stop offset="0%" stop-color="#1e293b"/>
      <stop offset="100%" stop-color="#0b1120"/>
    </radialGradient>
    <linearGradient id="bar" x1="0" y1="0" x2="1" y2="0">
      <stop offset="0%" stop-color="#94a3b8"/>
      <stop offset="50%" stop-color="#e2e8f0"/>
      <stop offset="100%" stop-color="#94a3b8"/>
    </linearGradient>
  </defs>
  <rect width="512" height="512" fill="url(#bg)"/>
  <g opacity="0.25" fill="none" stroke-linecap="round">
    <path d="M 96 408 A 190 190 0 0 1 416 408" stroke="#ff3b30" stroke-width="10"/>
    <path d="M 112 400 A 172 172 0 0 1 400 400" stroke="#ff9500" stroke-width="10"/>
    <path d="M 128 392 A 154 154 0 0 1 384 392" stroke="#ffd60a" stroke-width="10"/>
    <path d="M 144 384 A 136 136 0 0 1 368 384" stroke="#30d158" stroke-width="10"/>
    <path d="M 160 376 A 118 118 0 0 1 352 376" stroke="#0a84ff" stroke-width="10"/>
    <path d="M 176 368 A 100 100 0 0 1 336 368" stroke="#bf5af2" stroke-width="10"/>
  </g>
  <g transform="rotate(-25 256 256)">
    <rect x="76" y="243" width="360" height="26" rx="13" fill="url(#bar)"/>
    <rect x="94"  y="188" width="34" height="136" rx="12" fill="#ff3b30"/>
    <rect x="134" y="168" width="34" height="176" rx="12" fill="#ff9500"/>
    <rect x="174" y="148" width="34" height="216" rx="12" fill="#ffd60a"/>
    <rect x="304" y="148" width="34" height="216" rx="12" fill="#30d158"/>
    <rect x="344" y="168" width="34" height="176" rx="12" fill="#0a84ff"/>
    <rect x="384" y="188" width="34" height="136" rx="12" fill="#bf5af2"/>
    <g fill="#ffffff" opacity="0.28">
      <rect x="100" y="196" width="8" height="120" rx="4"/>
      <rect x="140" y="176" width="8" height="160" rx="4"/>
      <rect x="180" y="156" width="8" height="200" rx="4"/>
      <rect x="310" y="156" width="8" height="200" rx="4"/>
      <rect x="350" y="176" width="8" height="160" rx="4"/>
      <rect x="390" y="196" width="8" height="120" rx="4"/>
    </g>
  </g>
  <g fill="#f8fafc">
    <path d="M 404 96 l 7 18 18 7 -18 7 -7 18 -7 -18 -18 -7 18 -7 z"/>
    <path d="M 118 118 l 4.5 11 11 4.5 -11 4.5 -4.5 11 -4.5 -11 -11 -4.5 11 -4.5 z" opacity="0.8"/>
  </g>
</svg>
